HIERARCHY
ROOT Pelvis
{
	OFFSET 0.000000 0.000000 0.000000
	CHANNELS 6 Xposition Yposition Zposition Xrotation Yrotation Zrotation
	JOINT LeftUpLeg_virtual
	{
		OFFSET 0.000000 0.000000 0.000000
		CHANNELS 3 Xrotation Yrotation Zrotation
		JOINT LeftUpLeg
		{
			OFFSET 18.735201 -5.666702 -4.541200
			CHANNELS 3 Xrotation Yrotation Zrotation
			JOINT LeftLeg
			{
				OFFSET -0.021200 -31.938179 0.493100
				CHANNELS 3 Xrotation Yrotation Zrotation
				JOINT LeftFoot
				{
					OFFSET 0.021200 -31.938179 -4.336299
					CHANNELS 3 Xrotation Yrotation Zrotation
					JOINT LeftToeBase
					{
						OFFSET 0.943001 -26.722000 15.023500
						CHANNELS 3 Xrotation Yrotation Zrotation
						End Site
						{
							OFFSET 0 0 0
						}
					}
				}
			}
		}
	}
	JOINT RightUpLeg_virtual
	{
		OFFSET 0.000000 0.000000 0.000000
		CHANNELS 3 Xrotation Yrotation Zrotation
		JOINT RightUpLeg
		{
			OFFSET -18.735201 -5.666702 -4.541200
			CHANNELS 3 Xrotation Yrotation Zrotation
			JOINT RightLeg
			{
				OFFSET 0.018946 -31.938133 0.493100
				CHANNELS 3 Xrotation Yrotation Zrotation
				JOINT RightFoot
				{
					OFFSET -0.018946 -31.938126 -4.336299
					CHANNELS 3 Xrotation Yrotation Zrotation
					JOINT RightToeBase
					{
						OFFSET -0.943001 -26.722004 15.023500
						CHANNELS 3 Xrotation Yrotation Zrotation
						End Site
						{
							OFFSET 0 0 0
						}
					}
				}
			}
		}
	}
	JOINT Hips_virtual
	{
		OFFSET 0.000000 0.000000 0.000000
		CHANNELS 3 Xrotation Yrotation Zrotation
		JOINT Hips
		{
			OFFSET -0.000000 -0.000000 -0.000000
			CHANNELS 3 Xrotation Yrotation Zrotation
			JOINT Spine
			{
				OFFSET 0.000000 10.199997 -0.299500
				CHANNELS 3 Xrotation Yrotation Zrotation
				JOINT Spine1
				{
					OFFSET 0.000000 11.900002 -1.516600
					CHANNELS 3 Xrotation Yrotation Zrotation
					JOINT Spine2
					{
						OFFSET 0.000000 13.600006 -2.842500
						CHANNELS 3 Xrotation Yrotation Zrotation
						JOINT Neck_virtual
						{
							OFFSET 0.000000 0.000000 0.000000
							CHANNELS 3 Xrotation Yrotation Zrotation
							JOINT Neck
							{
								OFFSET 0.000000 9.624100 -2.890100
								CHANNELS 3 Xrotation Yrotation Zrotation
								JOINT Head
								{
									OFFSET 0.000000 14.068802 -1.351900
									CHANNELS 3 Xrotation Yrotation Zrotation
									End Site
									{
										OFFSET 0 0 0
									}
								}
							}
						}
						JOINT LeftShoulder_virtual
						{
							OFFSET 0.000000 0.000000 0.000000
							CHANNELS 3 Xrotation Yrotation Zrotation
							JOINT LeftShoulder
							{
								OFFSET 15.263000 10.923401 -0.547700
								CHANNELS 3 Xrotation Yrotation Zrotation
								JOINT LeftArm
								{
									OFFSET 25.438599 -2.830597 -13.032500
									CHANNELS 3 Xrotation Yrotation Zrotation
									JOINT LeftForeArm
									{
										OFFSET 29.960503 0.000000 0.000000
										CHANNELS 3 Xrotation Yrotation Zrotation
										JOINT LeftHand
										{
											OFFSET 27.849251 0.000000 0.000000
											CHANNELS 3 Xrotation Yrotation Zrotation
											End Site
											{
												OFFSET 0 0 0
											}
										}
									}
								}
							}
						}
						JOINT RightShoulder_virtual
						{
							OFFSET 0.000000 0.000000 0.000000
							CHANNELS 3 Xrotation Yrotation Zrotation
							JOINT RightShoulder
							{
								OFFSET -15.263000 10.923401 -0.547700
								CHANNELS 3 Xrotation Yrotation Zrotation
								JOINT RightArm
								{
									OFFSET -25.438599 -2.830597 -13.032500
									CHANNELS 3 Xrotation Yrotation Zrotation
									JOINT RightForeArm
									{
										OFFSET -29.960503 0.000000 0.000000
										CHANNELS 3 Xrotation Yrotation Zrotation
										JOINT RightHand
										{
											OFFSET -27.849251 0.000000 0.000000
											CHANNELS 3 Xrotation Yrotation Zrotation
											End Site
											{
												OFFSET 0 0 0
											}
										}
									}
								}
							}
						}
					}
				}
			}
		}
	}
}
MOTION
Frames: 6
Frame Time: 0.03333333
11.098399 93.993378 15.575079 0.000000 0.000000 0.000000 18.632537 -1.713246 -5.349583 -14.848840 14.220252 9.259367 23.308842 -2.721136 0.448009 -23.627820 -2.083768 -6.093932 0.000000 0.000000 0.000000 -4.536751 12.112005 3.760231 -36.695335 -0.907674 -10.881687 43.197719 1.413940 -1.240738 -7.124318 -0.909484 10.106690 0.000000 0.000000 0.000000 0.575222 -0.000313 0.122451 1.526565 14.428460 -6.085678 10.375240 -2.536571 2.119878 3.468449 -1.487276 1.864364 0.000000 0.000000 0.000000 1.460301 -1.222736 2.193070 -0.877005 -0.875033 0.777195 0.000000 0.000000 0.000000 0.823474 -0.688881 1.892667 -0.505243 -6.689167 -4.104944 3.028543 -3.459509 -65.665575 3.220589 -35.251067 -10.908766 0.000000 0.000000 0.000000 2.135135 -1.956169 0.671157 0.673657 0.848004 6.477905 9.827741 4.715668 60.007057 5.840893 34.843527 6.129571 0.000000 0.000000 0.000000 
11.073082 93.881668 16.390781 0.000000 0.000000 0.000000 19.004206 -1.785195 -5.310583 -14.260136 14.248422 9.205718 22.829800 -2.691551 0.396989 -24.014061 -2.005268 -6.141393 0.000000 0.000000 0.000000 -4.299540 11.909214 3.850546 -36.354157 -1.032233 -10.761023 40.723077 1.848751 -1.286514 -9.209013 -0.634839 10.229473 0.000000 0.000000 0.000000 0.621953 -0.043050 0.097923 1.763148 14.498318 -6.401907 10.317605 -2.672356 2.196123 3.445607 -1.562647 1.905551 0.000000 0.000000 0.000000 1.432623 -1.253044 2.267989 -0.880989 -0.871071 0.808204 0.000000 0.000000 0.000000 0.862441 -0.729034 1.966792 -0.476481 -6.711777 -3.834368 2.825610 -3.536152 -65.611548 3.195811 -35.315537 -10.959139 0.000000 0.000000 0.000000 2.237679 -2.055337 0.709420 0.808567 0.578283 6.505616 9.967397 4.680686 60.283011 5.828543 34.912478 6.291601 0.000000 0.000000 0.000000 
11.009235 93.762856 17.271584 0.000000 0.000000 0.000000 19.378643 -1.909850 -5.243380 -13.656150 14.257045 9.167806 22.378404 -2.676051 0.322073 -24.374860 -1.929279 -6.231239 0.000000 0.000000 0.000000 -4.047711 11.706827 3.922932 -35.992310 -1.152490 -10.655356 38.300159 2.212579 -1.401139 -11.221875 -0.388496 10.162523 0.000000 0.000000 0.000000 0.647094 -0.084136 0.074806 1.903838 14.682783 -6.740708 10.259678 -2.808648 2.278284 3.422385 -1.639269 1.951636 0.000000 0.000000 0.000000 1.386622 -1.297066 2.360623 -0.895948 -0.873803 0.846004 0.000000 0.000000 0.000000 0.916907 -0.780054 2.049462 -0.435508 -6.768414 -3.541278 2.739980 -3.685819 -65.563860 3.234344 -35.375421 -11.006948 0.000000 0.000000 0.000000 2.325525 -2.161120 0.750434 0.928848 0.292684 6.526264 10.147989 4.702297 60.608469 5.830888 35.038666 6.470925 0.000000 0.000000 0.000000 
10.913849 93.606087 18.219879 0.000000 0.000000 0.000000 19.745785 -2.102081 -5.155990 -13.065010 14.245129 9.140943 21.982023 -2.683330 0.225820 -24.695085 -1.865315 -6.364889 0.000000 0.000000 0.000000 -3.868836 11.318388 4.037427 -35.749972 -1.324946 -10.531558 36.036047 2.450992 -1.547555 -13.088824 -0.237731 9.945539 0.000000 0.000000 0.000000 0.687398 -0.150767 0.058648 2.147124 14.882596 -7.033433 10.214266 -2.955799 2.376616 3.403253 -1.721033 2.008072 0.000000 0.000000 0.000000 1.334698 -1.351364 2.437841 -0.909956 -0.879539 0.874608 0.000000 0.000000 0.000000 0.982400 -0.833209 2.141954 -0.377947 -6.817076 -3.211325 2.815837 -3.902317 -65.447986 3.370538 -35.375568 -11.001165 0.000000 0.000000 0.000000 2.384850 -2.270565 0.790648 1.021656 -0.003817 6.533411 10.249865 4.667234 60.891799 5.804035 35.201982 6.633107 0.000000 0.000000 0.000000 
10.771338 93.405106 19.261009 0.000000 0.000000 0.000000 20.119480 -2.300207 -5.052236 -12.461730 14.229068 9.128310 21.640930 -2.699273 0.114027 -24.972201 -1.803640 -6.526529 0.000000 0.000000 0.000000 -3.747010 10.975715 4.123506 -35.595316 -1.466106 -10.446109 33.969809 2.640852 -1.743925 -14.788965 -0.090624 9.611681 0.000000 0.000000 0.000000 0.694196 -0.192735 0.040976 2.255890 15.197622 -7.344479 10.145361 -3.099122 2.461950 3.369669 -1.799636 2.059099 0.000000 0.000000 0.000000 1.304886 -1.417375 2.460999 -0.910063 -0.891140 0.873081 0.000000 0.000000 0.000000 1.026760 -0.890667 2.226012 -0.333061 -6.875205 -2.914127 2.817976 -4.048305 -65.362349 3.451004 -35.344856 -11.036379 0.000000 0.000000 0.000000 2.394101 -2.376606 0.830593 1.060458 -0.284166 6.529503 10.130657 4.511406 61.159481 5.670009 35.366132 6.819884 0.000000 0.000000 0.000000 
10.593988 93.182938 20.345490 0.000000 0.000000 0.000000 20.490117 -2.500484 -4.927522 -11.874432 14.209524 9.143723 21.347560 -2.696746 -0.008490 -25.209614 -1.721770 -6.695447 0.000000 0.000000 0.000000 -3.649687 10.798496 4.172381 -35.475791 -1.546497 -10.398324 32.154283 2.823986 -1.978904 -16.281277 0.093333 9.215593 0.000000 0.000000 0.000000 0.671470 -0.254281 0.024748 2.280544 15.517608 -7.644104 10.071527 -3.261295 2.532634 3.328979 -1.883838 2.102430 0.000000 0.000000 0.000000 1.259364 -1.485371 2.469404 -0.914364 -0.902710 0.864420 0.000000 0.000000 0.000000 1.054903 -0.951597 2.303034 -0.300720 -6.942763 -2.644381 2.802319 -4.208017 -65.298746 3.521504 -35.314052 -11.087651 0.000000 0.000000 0.000000 2.375431 -2.483971 0.866740 1.071577 -0.570301 6.511213 9.865308 4.231960 61.359230 5.464848 35.490722 6.990360 0.000000 0.000000 0.000000 
